<?xml version="1.0" encoding="utf-8"?>
<!-- Generator: Adobe Illustrator 15.0.0, SVG Export Plug-In . SVG Version: 6.00 Build 0)  -->
<!DOCTYPE svg PUBLIC "-//W3C//DTD SVG 1.1//EN" "http://www.w3.org/Graphics/SVG/1.1/DTD/svg11.dtd">
<svg version="1.1" id="Layer_1" xmlns="http://www.w3.org/2000/svg" xmlns:xlink="http://www.w3.org/1999/xlink" x="0px" y="0px"
     width="612px" height="612px" viewBox="0 0 612 612" enable-background="new 0 0 612 612" xml:space="preserve">
<g>
    <path fill="#FFFFFF" d="M534,131.601c-5.667-24.934-22.667-41.934-47.6-47.601H215.533c-9.066,2.268-20.4,5.667-29.467,14.733
        C173.6,111.2,166.8,124.8,166.8,141.8v190.399h-5.667c-14.733,0-29.467,0-45.333,0c-27.2,0-49.867,18.134-57.8,44.201v140.533
        c5.667,21.533,20.4,35.133,41.934,41.933L240.466,560c1.133,0,2.267-1.134,2.267-1.134c26.067-7.933,41.933-29.466,41.933-56.667
        v-52.133h44.2c46.467,0,96.333,0,143.934,0c0,0,0,0,1.133,0c31.733,0,53.267-21.533,58.934-44.2L534,131.601z M500,393.4
        l-1.134,3.399c-1.133,7.934-10.2,19.267-26.066,19.267c-47.6,0-97.467,0-143.934,0h-79.333V502.2c0,10.2-6.8,20.399-18.133,22.667
        c-1.133,0-2.267,1.133-2.267,1.133H112.4h-1.133c-11.333-2.267-17-9.066-19.267-19.267V505.6V387.733c0-1.134,0-1.134,0-2.267
        c2.267-12.467,12.467-19.268,23.8-19.268c14.733,0,29.467,0,45.333,0h41.934V140.666c0-6.799,2.267-12.467,7.934-18.133
        c2.267-2.268,5.667-4.533,12.467-5.666h257.267c10.2,3.398,17,9.066,19.267,19.266C500,137.268,500,393.4,500,393.4z"/>
    <path fill="#FFFFFF" d="M456.934,180.334c0-12.467-6.801-19.268-19.268-19.268c-3.399,0-6.8,0-10.199,0H421.8h-21.533
        c-23.8,0-47.6,0-70.267,0c-4.533,0-9.066,1.134-12.467,3.4c-5.666,3.4-10.199,12.467-6.8,20.399c2.267,6.8,9.066,12.467,17,12.467
        c18.134,0,34,0,52.134,0H394.6C306.2,285.732,216.667,374.133,127.133,464.8c-2.267,2.267-2.267,2.267-4.533,4.533
        c-3.4,5.667-3.4,11.333-2.267,17c1.133,5.667,6.8,10.2,12.467,10.2c2.267,0,3.4,1.133,4.533,1.133c5.667,0,10.2-2.266,14.733-6.8
        c60.066-60.066,119-119,179.066-179.066l89.533-89.533v10.2c0,18.133,0,36.267,0,54.399c0,5.667,2.268,10.2,5.667,13.601
        c3.4,3.399,9.066,5.666,13.601,4.533c10.199-1.134,17-9.066,17-19.268c0-10.199,0-21.533,0-34V237v-18.134
        C456.934,206.4,456.934,192.801,456.934,180.334z"/>
</g>
</svg>
