<?xml version="1.0" encoding="utf-8"?>
<!-- Generator: Adobe Illustrator 19.0.1, SVG Export Plug-In . SVG Version: 6.00 Build 0)  -->
<!DOCTYPE svg PUBLIC "-//W3C//DTD SVG 1.1//EN" "http://www.w3.org/Graphics/SVG/1.1/DTD/svg11.dtd">
<svg version="1.1" id="Layer_1" xmlns="http://www.w3.org/2000/svg" xmlns:xlink="http://www.w3.org/1999/xlink" x="0px" y="0px"
     viewBox="-278 370 54 54" style="enable-background:new -278 370 54 54;" xml:space="preserve">
<style type="text/css">
    .st0{fill:#FAA31A;}
</style>
<g>
    <path class="st0" d="M-230,380.2c-0.5-2.2-2-3.7-4.2-4.2h-23.9c-0.8,0.2-1.8,0.5-2.6,1.3c-1.1,1.1-1.7,2.3-1.7,3.8v16.8h-0.5
        c-1.3,0-2.6,0-4,0c-2.4,0-4.4,1.6-5.1,3.9v12.4c0.5,1.9,1.8,3.1,3.7,3.7l12.4,0.1c0.1,0,0.2-0.1,0.2-0.1c2.3-0.7,3.7-2.6,3.7-5
        v-4.6h3.9c4.1,0,8.5,0,12.7,0c0,0,0,0,0.1,0c2.8,0,4.7-1.9,5.2-3.9L-230,380.2z M-233,403.3l-0.1,0.3c-0.1,0.7-0.9,1.7-2.3,1.7
        c-4.2,0-8.6,0-12.7,0h-7v7.6c0,0.9-0.6,1.8-1.6,2c-0.1,0-0.2,0.1-0.2,0.1h-10.3h-0.1c-1-0.2-1.5-0.8-1.7-1.7v-0.1v-10.4
        c0-0.1,0-0.1,0-0.2c0.2-1.1,1.1-1.7,2.1-1.7c1.3,0,2.6,0,4,0h3.7v-19.9c0-0.6,0.2-1.1,0.7-1.6c0.2-0.2,0.5-0.4,1.1-0.5h22.7
        c0.9,0.3,1.5,0.8,1.7,1.7C-233,380.7-233,403.3-233,403.3z"/>
    <path class="st0" d="M-236.8,384.5c0-1.1-0.6-1.7-1.7-1.7c-0.3,0-0.6,0-0.9,0h-0.5h-1.9c-2.1,0-4.2,0-6.2,0c-0.4,0-0.8,0.1-1.1,0.3
        c-0.5,0.3-0.9,1.1-0.6,1.8c0.2,0.6,0.8,1.1,1.5,1.1c1.6,0,3,0,4.6,0h1.3c-7.8,7.8-15.7,15.6-23.6,23.6c-0.2,0.2-0.2,0.2-0.4,0.4
        c-0.3,0.5-0.3,1-0.2,1.5s0.6,0.9,1.1,0.9c0.2,0,0.3,0.1,0.4,0.1c0.5,0,0.9-0.2,1.3-0.6c5.3-5.3,10.5-10.5,15.8-15.8l7.9-7.9v0.9
        c0,1.6,0,3.2,0,4.8c0,0.5,0.2,0.9,0.5,1.2c0.3,0.3,0.8,0.5,1.2,0.4c0.9-0.1,1.5-0.8,1.5-1.7c0-0.9,0-1.9,0-3v-1.3v-1.6
        C-236.8,386.8-236.8,385.6-236.8,384.5z"/>
</g>
</svg>
